<?xml version="1.0" ?><svg xmlns="http://www.w3.org/2000/svg" width="24" height="24" viewBox="0 0 24 24" fill="none"><path d="M7.9162 4H11.3463L13.4516 6H15.2846L17.3899 4H20.82L23.4134 6.46375L22.0359 7.91375L20.0215 6H18.1884L16.0832 8H12.653L10.5478 6H8.71475L6.60949 8H3.17936L0.585938 5.53625L1.96344 4.08625L3.97791 6H5.81094L7.9162 4Z" fill="black"/><path d="M7.9162 10H11.3463L13.4516 12H15.2846L17.3899 10H20.82L23.4134 12.4638L22.0359 13.9137L20.0215 12H18.1884L16.0832 14H12.653L10.5478 12H8.71475L6.60949 14H3.17936L0.585938 11.5363L1.96344 10.0863L3.97791 12H5.81094L7.9162 10Z" fill="black"/><path d="M7.9162 16H11.3463L13.4516 18H15.2846L17.3899 16H20.82L23.4134 18.4637L22.0359 19.9137L20.0215 18H18.1884L16.0832 20H12.653L10.5478 18H8.71475L6.60949 20H3.17936L0.585938 17.5363L1.96344 16.0863L3.97791 18H5.81094L7.9162 16Z" fill="black"/></svg>